<svg width="467" height="82" viewBox="0 0 467 82" fill="none" xmlns="http://www.w3.org/2000/svg">
<path d="M90.0055 0H69.5912C68.6633 0 67.7353 0.618707 67.426 1.54677C67.1167 2.47483 67.426 3.40289 68.1993 4.02159C71.6017 6.6511 74.3855 9.89931 76.5506 13.6115C78.4065 16.5504 79.6437 19.7986 80.2623 23.0468V23.2015L88.3043 48.2591C88.7683 49.6512 87.6857 51.198 86.1392 51.198H75.7773C75.0041 51.198 74.3855 51.5073 74.0761 52.126C73.1482 53.3634 72.2203 54.4462 71.1377 55.3742C68.0446 58.3131 64.4876 60.4786 60.4666 62.18C56.4456 63.7268 52.1153 64.5002 47.785 64.5002H46.0838L41.2895 78.4211C40.8256 79.8132 41.9081 81.3599 43.4547 81.3599H59.0747C60.0026 81.3599 60.9306 80.7412 61.2399 79.8132L64.333 70.0685C64.6423 69.1405 65.4155 68.5218 66.4981 68.5218H93.4079C94.3358 68.5218 95.2637 69.1405 95.573 70.0685L98.6661 79.8132C98.9754 80.7412 99.7487 81.3599 100.831 81.3599H116.451C117.998 81.3599 119.08 79.8132 118.616 78.4211L92.1707 1.54677C91.8614 0.618707 90.9334 0 90.0055 0Z" fill="black"/>
<path d="M47.7934 46.5578C52.1237 46.5578 55.8354 45.011 58.7738 42.0721C61.7122 39.1333 63.2588 35.1117 63.2588 30.0074C63.2588 25.9858 61.7122 22.4282 58.6191 19.18C55.5261 16.0865 51.8144 14.385 47.7934 14.385H15.78C14.8521 14.385 14.0788 15.1584 14.0788 16.0865V29.5433C14.0788 30.4714 14.8521 31.2448 15.78 31.2448C16.7079 31.2448 17.4812 30.4714 17.4812 29.5433V19.4893C17.4812 18.5613 18.2545 17.7879 19.1824 17.7879H47.6387C50.7318 17.7879 53.5156 19.0253 55.99 21.5001C58.4645 23.975 59.7017 26.7591 59.7017 29.8527C59.7017 34.0289 58.4645 37.1225 56.1447 39.4426C53.8249 41.7628 51.0411 42.8455 47.6387 42.8455H8.82058C7.89265 42.8455 7.11938 43.6189 7.11938 44.547V79.3492C7.11938 80.2773 7.89265 81.0507 8.82058 81.0507C9.7485 81.0507 10.5218 80.2773 10.5218 79.3492V48.2592C10.5218 47.3311 11.295 46.5578 12.223 46.5578H47.7934Z" fill="black"/>
<path d="M47.7883 39.4426C53.5105 39.4426 56.2943 36.3491 56.2943 30.0073C56.2943 27.6872 55.521 25.6764 53.8198 23.9749C52.1186 22.2735 50.1081 21.5001 47.7883 21.5001H22.889C21.9611 21.5001 21.1878 22.2735 21.1878 23.2016V29.698C21.1878 30.626 21.9611 31.3994 22.889 31.3994C23.8169 31.3994 24.5902 30.626 24.5902 29.698V26.7591C24.5902 25.8311 25.3635 25.0577 26.2914 25.0577H47.7883C49.1802 25.0577 50.4174 25.5217 51.3453 26.4498C52.2733 27.3778 52.7372 28.6152 52.7372 30.0073C52.7372 32.1728 52.2733 33.7196 51.3453 34.6476C50.4174 35.5757 49.1802 36.0397 47.6336 36.0397H4.63986C2.01074 36.0397 0.000244141 38.0505 0.000244141 40.68V79.6585C0.000244141 80.5866 0.773514 81.36 1.70144 81.36C2.62936 81.36 3.40263 80.5866 3.40263 79.6585V41.2987C3.40263 40.3707 4.1759 39.5973 5.10382 39.5973L47.7883 39.4426Z" fill="black"/>
<path d="M47.7934 53.5184C51.8144 53.5184 55.5261 52.5904 58.9284 50.5796C62.3308 48.5688 65.1146 45.7846 67.2798 42.0724C69.2903 38.3601 70.3728 34.3385 70.3728 30.0076C70.3728 26.1407 69.2903 22.4284 67.2798 18.8709C65.2693 15.3133 62.4855 12.5291 58.9284 10.5183C55.3714 8.50754 51.6597 7.4248 47.7934 7.4248H8.82058C7.89265 7.4248 7.11938 8.19819 7.11938 9.12625V29.6982C7.11938 30.6263 7.89265 31.3997 8.82058 31.3997C9.7485 31.3997 10.5218 30.6263 10.5218 29.6982V12.6838C10.5218 11.7558 11.295 10.9824 12.223 10.9824H47.7934C52.8969 10.9824 57.2273 12.8385 61.0936 16.7054C64.96 20.5723 66.8158 25.0579 66.8158 30.0076C66.8158 33.8745 65.8879 37.4321 64.1867 40.5256C62.4855 43.6191 60.011 45.9393 57.2273 47.6407C54.2888 49.3422 51.1958 50.1156 47.7934 50.1156H15.78C14.8521 50.1156 14.0788 50.8889 14.0788 51.817V79.6588C14.0788 80.5869 14.8521 81.3602 15.78 81.3602C16.7079 81.3602 17.4812 80.5869 17.4812 79.6588V55.3746C17.4812 54.4465 18.2545 53.6731 19.1824 53.6731H47.7934V53.5184Z" fill="black"/>
<path d="M73.3062 15.4682C70.5224 10.9826 66.9654 7.27037 62.4804 4.48619C57.9955 1.70201 53.0465 0.4646 47.7883 0.4646H4.63986C2.01074 0.4646 0.000244141 2.4754 0.000244141 5.1049V29.8532C0.000244141 30.7812 0.773514 31.5546 1.70144 31.5546C2.62936 31.5546 3.40263 30.7812 3.40263 29.8532V5.72361C3.40263 4.79555 4.1759 4.02216 5.10382 4.02216H47.6336C52.2733 4.02216 56.6036 5.25958 60.6246 7.57973C64.6456 9.89988 67.8933 13.1481 70.2131 17.1697C72.5329 21.1913 73.7702 25.5222 73.7702 30.0078C73.7702 33.8748 72.9969 37.4323 71.605 40.8352C70.2131 44.2381 68.3573 47.0223 65.8828 49.4971C63.563 51.8173 60.7792 53.6734 57.5315 55.0655C54.2838 56.4576 51.036 57.0763 47.479 57.0763H22.889C21.9611 57.0763 21.1878 57.8496 21.1878 58.7777V79.5044C21.1878 80.4324 21.9611 81.2058 22.889 81.2058C23.8169 81.2058 24.5902 80.4324 24.5902 79.5044V62.3353C24.5902 61.4072 25.3635 60.6338 26.2914 60.6338H47.7883C51.8093 60.6338 55.521 59.8604 59.078 58.4683C62.6351 57.0763 65.7281 55.0655 68.5119 52.436C71.141 49.8065 73.3062 46.5582 75.0074 42.6913C76.5539 38.8244 77.3272 34.4935 77.3272 29.8532C77.4818 24.9035 76.09 19.9539 73.3062 15.4682Z" fill="black"/>
<path d="M339.003 18.7143C338.23 19.1783 337.302 19.0236 336.838 18.4049C333.59 13.9193 329.415 10.3617 324.466 7.73223C319.053 4.79338 313.176 3.40129 306.99 3.40129C301.886 3.40129 297.092 4.32935 292.607 6.34014C287.967 8.35094 284.101 10.9804 280.699 14.2287C277.451 17.4769 274.667 21.4985 272.811 26.1388C270.801 30.7791 269.873 35.574 269.873 40.5237C269.873 45.628 270.801 50.423 272.811 54.9086C274.822 59.5489 277.451 63.4158 280.699 66.8187C283.946 70.0669 287.967 72.8511 292.607 74.7072C297.247 76.718 302.041 77.6461 306.99 77.6461C313.176 77.6461 319.053 76.254 324.466 73.3151C329.415 70.6856 333.59 67.1281 336.838 62.6425C337.302 62.0238 338.385 61.7144 339.003 62.3331L339.158 62.4878C339.777 62.9518 339.931 64.0345 339.467 64.6533C335.91 69.4482 331.425 73.3151 326.012 76.254C320.135 79.3475 313.795 81.049 306.99 81.049C301.577 81.049 296.319 79.9662 291.37 77.8008C286.421 75.6353 282.091 72.8511 278.534 69.1389C274.977 65.5813 272.038 61.2504 269.873 56.3007C267.708 51.3511 266.625 46.092 266.625 40.6784C266.625 35.2647 267.708 30.0057 269.873 24.9013C272.038 19.9517 274.822 15.6207 278.534 12.0632C282.091 8.50562 286.421 5.56676 291.37 3.40129C296.319 1.23581 301.577 0.153076 306.99 0.153076C313.795 0.153076 320.135 1.69984 326.012 4.94805C331.425 7.88691 335.91 11.7538 339.467 16.5488C339.931 17.3222 339.622 18.2502 339.003 18.7143ZM333.59 22.4265C332.817 22.8905 331.889 22.7359 331.425 22.1172C328.796 18.5596 325.394 15.6207 321.373 13.4553C316.888 10.9804 312.093 9.89771 306.835 9.89771C302.66 9.89771 298.639 10.6711 294.927 12.3725C291.215 14.074 287.813 16.2394 285.184 18.869C282.4 21.6531 280.235 24.9013 278.688 28.6136C277.142 32.4805 276.214 36.3474 276.214 40.5237C276.214 44.7 276.987 48.7216 278.688 52.4338C280.235 56.3007 282.555 59.5489 285.184 62.1784C287.967 64.9626 291.215 67.1281 294.927 68.6749C298.639 70.2216 302.66 71.1497 306.835 71.1497C312.093 71.1497 316.888 69.9123 321.373 67.4374C325.394 65.272 328.641 62.3331 331.425 58.9302C331.889 58.3115 332.817 58.1568 333.59 58.6209L333.745 58.7755C334.364 59.2396 334.518 60.3223 334.054 60.941C331.116 64.9626 327.404 68.0561 322.919 70.531C317.97 73.1605 312.712 74.5526 306.99 74.5526C299.412 74.5526 292.607 72.2324 286.576 67.7468C284.101 65.8907 281.781 63.5705 279.925 61.0957C275.286 54.9086 273.121 48.1028 273.121 40.5237C273.121 32.9445 275.441 26.1388 280.08 19.9517C281.936 17.4769 284.256 15.3114 286.73 13.4553C292.762 8.96965 299.567 6.6495 307.145 6.6495C312.867 6.6495 318.28 8.04159 323.229 10.6711C327.714 13.1459 331.425 16.2395 334.364 20.261C334.518 20.8798 334.364 21.9625 333.59 22.4265ZM328.177 25.9841C327.404 26.4481 326.476 26.2934 326.012 25.6747C324.002 23.0452 321.373 20.8797 318.28 19.1783C314.723 17.3222 311.011 16.3941 306.835 16.3941C302.505 16.3941 298.329 17.4769 294.618 19.6423C290.906 21.8078 287.967 24.7467 285.802 28.4589C283.637 32.1711 282.555 36.1927 282.555 40.6784C282.555 45.0093 283.637 49.1856 285.802 52.8978C287.967 56.6101 290.906 59.5489 294.618 61.7144C298.329 63.8799 302.35 64.9626 306.835 64.9626C311.011 64.9626 314.723 64.0345 318.28 62.0237C321.373 60.3223 324.002 58.1568 326.012 55.5273C326.476 54.9086 327.404 54.7539 328.177 55.218L328.332 55.3727C329.105 55.8367 329.26 56.9194 328.641 57.5381C326.322 60.6317 323.383 63.1065 319.826 65.1173C315.805 67.2828 311.475 68.3655 306.835 68.3655C300.649 68.3655 295.082 66.5094 290.133 62.7971C288.122 61.2504 286.266 59.5489 284.874 57.3834C281.163 52.4338 279.462 46.8654 279.462 40.833C279.462 34.8007 281.317 29.2323 285.029 24.2826C286.576 22.2718 288.277 20.4157 290.287 18.869C295.236 15.1567 300.804 13.3006 306.99 13.3006C311.63 13.3006 315.96 14.3833 319.981 16.5488C323.538 18.4049 326.476 20.8797 328.796 23.9733C329.26 24.592 328.951 25.5201 328.177 25.9841ZM322.919 29.6963C322.146 30.1604 321.218 30.0057 320.754 29.387C319.208 27.5308 317.506 25.9841 315.341 24.9013C312.557 23.5093 309.619 22.7359 306.371 22.8905C301.732 23.0452 297.247 25.056 293.999 28.4589C290.751 31.8618 289.05 35.8834 289.05 40.6784C289.05 45.4733 291.061 49.959 294.308 53.3619C297.711 56.7647 301.886 58.4662 306.835 58.4662C309.928 58.4662 312.712 57.6928 315.187 56.3007C317.352 55.0633 319.208 53.6712 320.599 51.8151C321.063 51.1964 321.991 51.0417 322.765 51.5057H322.919C323.538 51.9698 323.847 53.0525 323.229 53.6712C321.527 55.8367 319.208 57.6928 316.733 59.0849C313.64 60.7863 310.392 61.5597 306.835 61.5597C304.051 61.5597 301.268 60.941 298.639 59.8583C296.009 58.7755 293.844 57.2288 291.988 55.3727C290.133 53.5165 288.586 51.1964 287.504 48.7215C286.421 46.092 285.802 43.4625 285.802 40.5237C285.802 37.7395 286.421 34.9553 287.504 32.3258C288.586 29.6963 290.133 27.5308 291.988 25.6747C293.844 23.8186 296.164 22.2718 298.639 21.1891C301.268 20.1064 303.897 19.4877 306.835 19.4877C310.392 19.4877 313.64 20.261 316.733 21.9625C319.362 23.3546 321.527 25.2107 323.229 27.3762C323.847 28.1496 323.693 29.2323 322.919 29.6963Z" fill="black"/>
<path d="M348.125 0.153076C349.053 0.153076 349.827 0.92646 349.827 1.85452V79.1929C349.827 80.1209 349.053 80.8943 348.125 80.8943C347.198 80.8943 346.424 80.1209 346.424 79.1929V1.85452C346.27 0.92646 347.043 0.153076 348.125 0.153076ZM355.085 0.153076C356.013 0.153076 356.786 0.92646 356.786 1.85452V79.1929C356.786 80.1209 356.013 80.8943 355.085 80.8943C354.157 80.8943 353.384 80.1209 353.384 79.1929V1.85452C353.384 0.92646 354.157 0.153076 355.085 0.153076ZM362.044 0.153076C362.972 0.153076 363.745 0.92646 363.745 1.85452V79.1929C363.745 80.1209 362.972 80.8943 362.044 80.8943C361.116 80.8943 360.343 80.1209 360.343 79.1929V1.85452C360.343 0.92646 361.116 0.153076 362.044 0.153076ZM369.158 0.153076C370.086 0.153076 370.86 0.92646 370.86 1.85452V79.1929C370.86 80.1209 370.086 80.8943 369.158 80.8943C368.23 80.8943 367.457 80.1209 367.457 79.1929V1.85452C367.457 0.92646 368.23 0.153076 369.158 0.153076Z" fill="black"/>
<path d="M379.366 81.049C378.129 81.049 377.201 79.8116 377.665 78.7288L408.286 1.39049C408.596 0.771783 409.214 0.307753 409.987 0.307753H411.379C412.153 0.307753 412.771 0.771783 413.081 1.39049L443.702 78.7288C444.166 79.8116 443.238 81.049 442.001 81.049C441.228 81.049 440.609 80.585 440.3 79.9662L410.606 4.94805L380.913 79.9662C380.758 80.585 380.139 81.049 379.366 81.049ZM411.07 13.3006L413.081 17.7862L388.491 79.9662C388.181 80.585 387.563 81.049 386.789 81.049C385.552 81.049 384.779 79.8116 385.088 78.7288L411.07 13.3006ZM414.936 22.5812L416.792 27.3762L396.069 79.9662C395.759 80.585 395.141 81.049 394.367 81.049C393.13 81.049 392.357 79.8116 392.666 78.7288L414.936 22.5812ZM418.648 32.1711L420.504 37.1208L403.647 79.9662C403.337 80.585 402.719 81.049 401.945 81.049C400.708 81.049 399.935 79.8116 400.244 78.7288L418.648 32.1711ZM409.987 68.9842C410.297 68.3655 410.915 67.9015 411.689 67.9015H432.412C433.186 67.9015 433.804 68.3655 433.959 68.9842C434.423 70.0669 433.649 71.459 432.412 71.459H411.689C410.451 71.3044 409.523 70.0669 409.987 68.9842ZM412.771 61.8691C413.081 61.2504 413.699 60.7863 414.472 60.7863H429.628C430.402 60.7863 431.02 61.2504 431.175 61.8691C431.639 62.9518 430.866 64.3439 429.628 64.3439H414.472C413.081 64.3439 412.307 63.1065 412.771 61.8691ZM415.555 54.9086C415.864 54.2899 416.483 53.8259 417.256 53.8259H426.845C427.618 53.8259 428.237 54.2899 428.391 54.9086C428.855 55.9914 428.082 57.3834 426.845 57.3834H417.256C415.864 57.2288 415.091 55.9914 415.555 54.9086ZM420.504 1.23581L451.125 78.5742C451.589 79.6569 450.661 80.8943 449.424 80.8943C448.651 80.8943 448.032 80.4303 447.723 79.8116L417.102 2.47323C416.638 1.39049 417.565 0.153076 418.803 0.153076C419.576 0.153076 420.195 0.617106 420.504 1.23581ZM428.082 1.23581L458.703 78.5742C459.167 79.6569 458.239 80.8943 457.002 80.8943C456.229 80.8943 455.61 80.4303 455.301 79.8116L424.68 2.47323C424.216 1.39049 425.144 0.153076 426.381 0.153076C427.154 0.153076 427.773 0.617106 428.082 1.23581ZM464.58 81.049C463.807 81.049 463.188 80.585 462.879 79.9662L432.258 2.6279C431.794 1.54517 432.722 0.307753 433.959 0.307753C434.732 0.307753 435.351 0.771783 435.66 1.39049L466.281 78.7288C466.591 79.8116 465.817 81.049 464.58 81.049Z" fill="black"/>
<path d="M167.024 2.47483V15.313C167.024 16.7051 165.941 17.7878 164.549 17.7878H148.774C147.383 17.7878 146.3 18.8706 146.3 20.2626V78.5758C146.3 79.9678 145.217 81.0506 143.825 81.0506H130.371C128.979 81.0506 127.896 79.9678 127.896 78.5758V20.4173C127.896 19.0252 126.814 17.9425 125.422 17.9425H109.338C107.946 17.9425 106.863 16.8598 106.863 15.4677V2.47483C106.709 1.08274 107.946 0 109.338 0H164.549C165.941 0 167.024 1.08274 167.024 2.47483Z" fill="black"/>
<path d="M214.967 79.9678L201.048 55.8383C200.584 55.0649 199.811 54.6009 198.883 54.6009H194.089C192.697 54.6009 191.614 55.6836 191.614 57.0757V78.7304C191.614 80.1225 190.532 81.2053 189.14 81.2053H175.685C174.293 81.2053 173.21 80.1225 173.21 78.7304V2.47483C173.21 1.08274 174.293 0 175.685 0H205.688C213.42 0 219.916 2.6295 225.329 8.04319C230.742 13.4569 233.371 19.9533 233.371 27.6871C233.371 36.8131 228.267 45.1656 220.535 49.9606C219.452 50.734 218.988 52.126 219.761 53.3635L233.525 77.1837C234.453 78.8851 233.216 81.0506 231.36 81.0506H217.287C216.204 81.2053 215.431 80.7412 214.967 79.9678ZM191.614 19.9533V35.7303C191.614 37.1224 192.697 38.2051 194.089 38.2051H205.533C210.637 38.2051 214.812 33.7195 214.812 27.8418C214.812 21.9641 210.637 17.4785 205.533 17.4785H194.089C192.697 17.3238 191.614 18.5612 191.614 19.9533Z" fill="black"/>
<path d="M243.888 0H257.343C258.735 0 259.818 1.08274 259.818 2.47483V78.5758C259.818 79.9678 258.735 81.0506 257.343 81.0506H243.888C242.496 81.0506 241.414 79.9678 241.414 78.5758V2.47483C241.414 1.08274 242.496 0 243.888 0Z" fill="black"/>
</svg>
